# AST/ASF file generated using VICON BodyLanguage
# -----------------------------------------------
:version 1.10
:name VICON
:units
  mass 1.0
  length 0.45
  angle deg
:documentation
   .ast/.asf automatically generated from VICON data using
   VICON BodyBuilder and BodyLanguage model FoxedUp or BRILLIANT.MOD
:root
   order TX TY TZ RX RY RZ
   axis XYZ
   position 0 0 0  
   orientation 0 -0 0 
:bonedata
  begin
     id 1 
     name lhipjoint
     direction 0.515797 -0.759363 0.396637 
     length 2.47888 
     axis 0 -0 0  XYZ
  end
  begin
     id 2 
     name lfemur
     direction 0.34202 -0.939693 0  
     length 6.81885  
     axis 0 -0 20  XYZ
    dof rx ry rz
    limits (-160.0 20.0)
           (-70.0 70.0)
           (-60.0 70.0)
  end
  begin
     id 3 
     name ltibia
     direction 0.342037 -0.939687 0   
     length 7.89258   
     axis 0 -0 20   XYZ
    dof rx
    limits (-10.0 170.0)
  end
  begin
     id 4 
     name lfoot
     direction 0.173497 -0.476678 0.861787   
     length 2.51543   
     axis -90 -1.13533e-015 20   XYZ
    dof rx rz
    limits (-45.0 90.0)
           (-70.0 20.0)
  end
  begin
     id 5 
     name ltoes
     direction 1.53564e-011 -4.21897e-011 1   
     length 1.21388   
     axis -90 -1.13533e-015 20   XYZ
    dof rx
    limits (-90.0 20.0)
  end
  begin
     id 6 
     name rhipjoint
     direction -0.489454 -0.772941 0.403729   
     length 2.43534  
     axis 0 -0 0  XYZ 
  end
  begin
     id 7 
     name rfemur
     direction -0.34202 -0.939693 0   
     length 7.10357   
     axis 0 -0 -20   XYZ
    dof rx ry rz
    limits (-160.0 20.0)
           (-70.0 70.0)
           (-70.0 60.0)
  end
  begin
     id 8 
     name rtibia
     direction -0.34202 -0.939693 0   
     length 9.16127   
     axis 0 -0 -20   XYZ
    dof rx
    limits (-10.0 170.0)
 end
 begin
     id 9 
     name rfoot
     direction -0.270974 -0.748671 0.605033   
     length 1.74894  
     axis -90 1.13533e-015 -20   XYZ
    dof rx rz
    limits (-45.0 90.0)
           (-20.0 70.0)
  end
  begin
     id 10 
     name rtoes
     direction -1.53557e-011 -4.21759e-011 1   
     length 0.787585   
     axis -90 1.13533e-015 -20   XYZ
    dof rx
    limits (-90.0 20.0)
  end
  begin
     id 11 
     name lowerback
     direction -0.0140249 0.999561 0.0260968   
     length 2.16963   
     axis 0 -0 0   XYZ
    dof rx ry rz
    limits (-20.0 45.0)
           (-30.0 30.0)
           (-30.0 30.0)
  end
  begin
     id 12 
     name upperback
     direction 0.00860018 0.999959 -0.002711   
     length 2.1726   
     axis 0 -0 0   XYZ
    dof rx ry rz
    limits (-20.0 45.0)
           (-30.0 30.0)
           (-30.0 30.0)
  end
  begin
     id 13 
     name thorax
     direction 0.015211 0.999782 -0.0143191   
     length 2.17061   
     axis 0 -0 0   XYZ
    dof rx ry rz
    limits (-20.0 45.0)
           (-30.0 30.0)
           (-30.0 30.0)
  end
  begin
     id 14 
     name lowerneck
     direction -0.0140143 0.999447 0.030145   
     length 2.26749   
     axis 0 -0 0   XYZ
    dof rx ry rz
    limits (-20.0 45.0)
           (-30.0 30.0)
           (-30.0 30.0)
  end
  begin
     id 15 
     name upperneck
     direction 0.118062 0.961438 -0.248392   
     length 2.22728   
     axis 0 -0 0   XYZ
    dof rx ry rz
    limits (-20.0 45.0)
           (-30.0 30.0)
           (-30.0 30.0)
  end
  begin
     id 16
     name head
     direction 0.0431885 0.9954 -0.085514  
     length 2.28786  
     axis 0 -0 0   XYZ
    dof rx ry rz
    limits (-20.0 45.0)
           (-30.0 30.0)
           (-30.0 30.0)
  end
  begin
     id 17 
     name lclavicle
     direction 0.912126 0.409548 0.0172323  
     length 4.31571  
     axis 0 -0 0   XYZ
    dof ry rz
    limits (-20.0 10.0)
           (0.0 20.0)
  end
  begin
     id 18 
     name lhumerus
     direction 1 -4.48977e-011 1.93091e-027   
     length 5.13658   
     axis 180 -30 -90   XYZ
    dof rx ry rz
    limits (-60.0 90.0)
           (-90.0 90.0)
           (-90.0 90.0)
  end
  begin
     id 19
     name lradius
     direction 1 -4.48916e-011 6.84018e-027   
     length 3.22473   
     axis 180 -30 -90   XYZ
    dof rx
    limits (-10.0 170.0)
  end
  begin
     id 20
     name lwrist
     direction 1 -4.48987e-011 7.01981e-027   
     length 1.61236   
     axis -4.37994e-015 90 90   XYZ
    dof ry
    limits (-180.0 0.0)
 end
  begin
     id 21 
     name lhand
     direction 1 -4.49037e-011 1.40335e-026   
     length 0.936406   
     axis -8.96029e-015 90 90   XYZ
    dof rx rz
    limits (-90.0 90.0)
           (-45.0 45.0)
  end
  begin
     id 22 
     name lfingers
     direction 1 -4.48886e-011 2.8104e-026   
     length 0.754955   
     axis -1.79203e-014 90 90   XYZ
    dof rx
    limits (0.0 90.0)
  end
  begin
     id 23
     name lthumb
     direction 0.707107 -6.34937e-011 0.707107   
     length 1.08397   
     axis -90 45 -4.48555e-014   XYZ
    dof rx rz
    limits (-45.0 45.0)
           (-45.0 45.0)
  end
  begin
     id 24 
     name rclavicle
     direction -0.947962 0.317997 0.0156638   
     length 4.86918  
     axis 0 -0 0   XYZ 
    dof ry rz
    limits (-10.0 20.0)
           (-20.0 0.0)
  end
  begin
     id 25 
     name rhumerus
     direction -1 -4.48951e-011 2.80534e-018  
     length 5.60911   
     axis 180 30 90   XYZ
    dof rx ry rz
    limits (-90.0 60.0)
           (-90.0 90.0)
           (-90.0 90.0)
  end
  begin
     id 26 
     name rradius
     direction -1 -4.4898e-011 2.11315e-027   
     length 3.38704   
     axis 180 30 90   XYZ
    dof rx
    limits (-10.0 170.0)
  end
  begin
     id 27 
     name rwrist
     direction -1 -4.48933e-011 7.02314e-027   
     length 1.69352   
     axis -4.37994e-015 -90 -90   XYZ
    dof ry
    limits (-180.0 0.0)
  end
  begin
     id 28
     name rhand
     direction -1 -4.48937e-011 1.40458e-026   
     length 0.755878   
     axis -8.96029e-015 -90 -90   XYZ
    dof rx rz
    limits (-90.0 90.0)
           (-45.0 45.0)
  end
  begin
     id 29
     name rfingers
     direction -1 -4.4901e-011 2.80737e-026   
     length 0.609409   
     axis -1.79203e-014 -90 -90   XYZ
    dof rx
    limits (0.0 90.0)
  end
  begin
     id 30
     name rthumb
     direction -0.707107 -6.34968e-011 0.707107   
     length 0.874992   
     axis -90 -45 4.48555e-014   XYZ
    dof rx rz
    limits (-45.0 45.0)
           (-45.0 45.0)
  end
:hierarchy
  begin
    root lhipjoint rhipjoint lowerback
    lhipjoint lfemur
    lfemur ltibia
    ltibia lfoot
    lfoot ltoes
    rhipjoint rfemur
    rfemur rtibia
    rtibia rfoot
    rfoot rtoes
    lowerback upperback
    upperback thorax
    thorax lowerneck lclavicle rclavicle
    lowerneck upperneck
    upperneck head
    lclavicle lhumerus
    lhumerus lradius
    lradius lwrist
    lwrist lhand lthumb
    lhand lfingers
    rclavicle rhumerus
    rhumerus rradius
    rradius rwrist
    rwrist rhand rthumb
    rhand rfingers
  end

#!OML:ASF C:\ViconDB\ViconDB\414\Spring2016\041811\Spring2016.ASF
:FULLY-SPECIFIED
:DEGREES
18
root 13.0081 18.1749 12.6799 -177.983 -6.29051 -176.317
lowerback 2.324 0.996542 -2.2728
upperback 0.943832 1.26248 1.19487
thorax -0.411237 0.616351 2.46598
lowerneck -14.5909 0.323778 -5.44237
upperneck 23.3064 -2.533 12.5294
head 10.0217 -0.69152 4.97991
rclavicle -1.88348e-014 7.95139e-015
rhumerus -38.851 -16.9797 -79.7087
rradius 39.6608
rwrist 39.1646
rhand -32.9073 -12.8187
rfingers 7.12502
rthumb -6.12469 -42.7102
lclavicle -1.88348e-014 7.95139e-015
lhumerus -37.1549 -5.61272 87.6437
lradius 29.6718
lwrist -30.7559
lhand -28.1945 15.1328
lfingers 7.12502
lthumb -1.57376 45.1067
rfemur 169.235 42.2476 -167.827
rtibia 30.3356
rfoot -30.2246 -51.2237
rtoes 3.65764e-014
lfemur -7.50534 -7.91585 -10.4984
ltibia 25.0557
lfoot -26.4616 18.9964
ltoes 8.74653e-015
19
root 13.0175 18.1668 12.671 -177.906 -6.58727 -176.303
lowerback 2.32581 0.87593 -2.25686
upperback 0.877484 1.1034 1.20714
thorax -0.470677 0.53902 2.47357
lowerneck -14.5235 0.353754 -5.49554
upperneck 23.3112 -2.52147 12.6476
head 10.0106 -0.68466 5.03271
rclavicle 1.25234e-014 -1.19271e-015
rhumerus -39.2477 -16.0774 -79.9364
rradius 40.2872
rwrist 38.5825
rhand -32.7562 -12.681
rfingers 7.12502
rthumb -5.97883 -42.5766
lclavicle 1.25234e-014 -1.19271e-015
lhumerus -37.2671 -5.74762 87.4264
lradius 29.7906
lwrist -30.8071
lhand -28.1216 14.9516
lfingers 7.12502
lthumb -1.50339 44.9261
rfemur 168.795 42.4972 -167.613
rtibia 30.4946
rfoot -30.6139 -51.6972
rtoes -4.29375e-014
lfemur -7.83978 -7.97831 -10.4122
ltibia 25.4322
lfoot -26.5296 18.7871
ltoes -1.64991e-014
20
root 13.0282 18.1485 12.6616 -177.886 -6.8879 -176.274
lowerback 2.45869 0.780244 -2.22106
upperback 0.767154 0.975609 1.23101
thorax -0.650364 0.479465 2.47909
lowerneck -14.4501 0.376769 -5.45513
upperneck 23.3997 -2.51225 12.6033
head 10.0257 -0.687621 5.01231
rclavicle 1.99779e-014 3.57812e-015
rhumerus -39.811 -15.2286 -80.0249
rradius 40.9637
rwrist 38.1526
rhand -32.5966 -12.2503
rfingers 7.12502
rthumb -5.82477 -42.1502
lclavicle 1.99779e-014 3.57812e-015
lhumerus -37.4712 -5.94321 87.3009
lradius 29.923
lwrist -30.4055
lhand -28.3205 14.8984
lfingers 7.12502
lthumb -1.69548 44.8715
rfemur 168.423 42.9233 -167.353
rtibia 30.5645
rfoot -31.6702 -52.6504
rtoes -4.05521e-014
lfemur -8.19021 -7.87296 -10.2927
ltibia 25.9215
lfoot -26.5451 18.4032
ltoes -2.32578e-014
21
root 13.0465 18.1217 12.6468 -177.855 -7.19004 -176.277
lowerback 2.45987 0.695417 -2.27613
upperback 0.722602 0.862163 1.253
thorax -0.691049 0.424235 2.53596
lowerneck -14.4538 0.397946 -5.44547
upperneck 23.444 -2.51233 12.6587
head 10.0429 -0.683287 5.03234
rclavicle -1.50828e-014 -8.34896e-015
rhumerus -40.356 -14.2435 -80.2665
rradius 41.7429
rwrist 37.6246
rhand -32.43 -12.7361
rfingers 7.12502
rthumb -5.66393 -42.6404
lclavicle -1.50828e-014 -8.34896e-015
lhumerus -37.568 -6.13345 87.0388
lradius 30.1184
lwrist -30.7478
lhand -28.0405 15.1238
lfingers 7.12502
lthumb -1.42503 45.0988
rfemur 168.211 43.6824 -166.968
rtibia 30.5503
rfoot -33.6529 -53.7791
rtoes 3.33958e-014
lfemur -8.54826 -7.63446 -10.1614
ltibia 26.4461
lfoot -26.5336 17.8936
ltoes -8.54774e-015
22
root 13.0632 18.1081 12.6336 -177.769 -7.63668 -176.289
lowerback 2.50543 0.569389 -2.21473
upperback 0.618631 0.696608 1.22375
thorax -0.811962 0.345182 2.47562
lowerneck -14.4285 0.418871 -5.44249
upperneck 23.4832 -2.52114 12.7404
head 10.054 -0.682897 5.06137
rclavicle -1.55549e-014 -1.78906e-014
rhumerus -40.9968 -13.367 -80.4953
rradius 42.5335
rwrist 37.1157
rhand -32.379 -12.1991
rfingers 7.12502
rthumb -5.61468 -42.1047
lclavicle -1.55549e-014 -1.78906e-014
lhumerus -37.723 -6.32253 86.745
lradius 30.3022
lwrist -30.7122
lhand -28.1746 14.9272
lfingers 7.12502
lthumb -1.55451 44.9013
rfemur 168.16 44.7241 -166.502
rtibia 30.5075
rfoot -37.9853 -54.4744
rtoes 6.52014e-014
lfemur -8.98058 -7.36574 -10.0201
ltibia 26.8384
lfoot -26.3065 17.3292
ltoes -5.98342e-014
23
root 13.0815 18.1052 12.6156 -177.716 -8.0512 -176.353
lowerback 2.47617 0.479526 -2.23202
upperback 0.573769 0.578041 1.19621
thorax -0.834378 0.287366 2.46093
lowerneck -14.3359 0.416171 -5.52307
upperneck 23.4006 -2.54474 12.9039
head 10.0114 -0.689182 5.12779
rclavicle -1.881e-014 2.38542e-015
rhumerus -41.6106 -12.5215 -80.7169
rradius 43.312
rwrist 36.6502
rhand -32.5023 -12.1855
rfingers 7.12502
rthumb -5.73373 -42.0879
lclavicle -1.881e-014 2.38542e-015
lhumerus -37.8045 -6.6529 86.529
lradius 30.578
lwrist -30.2501
lhand -28.0522 14.9299
lfingers 7.12502
lthumb -1.43635 44.9048
rfemur 168.184 45.829 -166.125
rtibia 30.4079
rfoot -43.0672 -54.3493
rtoes 1.59028e-015
lfemur -9.21477 -7.0115 -9.94006
ltibia 27.0073
lfoot -26.0034 16.7267
ltoes 1.10127e-013
24
root 13.1002 18.1081 12.5934 -177.569 -8.36877 -176.543
lowerback 2.40475 0.428176 -2.37258
upperback 0.467307 0.509892 1.15687
thorax -0.900307 0.257072 2.50182
lowerneck -14.2484 0.413967 -5.64283
upperneck 23.3772 -2.54909 13.0136
head 9.98817 -0.694819 5.18637
rclavicle -2.54196e-014 -9.54166e-015
rhumerus -42.3208 -11.6266 -80.8965
rradius 44.126
rwrist 36.1126
rhand -32.548 -12.2785
rfingers 7.12502
rthumb -5.77783 -42.1797
lclavicle -2.54196e-014 -9.54166e-015
lhumerus -37.959 -6.82618 86.3747
lradius 30.8037
lwrist -29.8544
lhand -28.1792 14.9357
lfingers 7.12502
lthumb -1.55895 44.9097
rfemur 168.368 46.1684 -166.009
rtibia 30.2558
rfoot -44.9923 -53.4409
rtoes 9.22361e-014
lfemur -9.36324 -6.67305 -10.0113
ltibia 26.9382
lfoot -25.6388 16.2705
ltoes 8.22969e-014
25
root 13.1251 18.1152 12.5673 -177.522 -8.74462 -176.639
lowerback 2.23276 0.373131 -2.35409
upperback 0.506897 0.440812 1.05573
thorax -0.758181 0.220401 2.39063
lowerneck -14.2622 0.425572 -5.56971
upperneck 23.3107 -2.55281 13.0651
head 9.96836 -0.683358 5.18946
rclavicle 6.21202e-016 -1.98785e-015
rhumerus -42.8412 -11.075 -81.1457
rradius 44.7473
rwrist 35.9389
rhand -32.6158 -11.9084
rfingers 7.12502
rthumb -5.84328 -41.8079
lclavicle 6.21202e-016 -1.98785e-015
lhumerus -37.8629 -7.04782 85.9317
lradius 30.9998
lwrist -29.8592
lhand -27.9523 14.7902
lfingers 7.12502
lthumb -1.33988 44.7657
rfemur 168.474 45.477 -166.117
rtibia 30.0304
rfoot -43.7858 -51.9614
rtoes 1.90833e-014
lfemur -9.31118 -6.34699 -9.95875
ltibia 26.6414
lfoot -25.1776 15.7848
ltoes 5.26779e-014
26
root 13.1501 18.1193 12.5387 -177.358 -9.12695 -176.875
lowerback 1.93967 0.268232 -2.57851
upperback 0.552862 0.303931 1.00906
thorax -0.539605 0.149055 2.47396
lowerneck -14.4173 0.460363 -5.57706
upperneck 23.3356 -2.48016 13.0439
head 9.99922 -0.642097 5.19611
rclavicle 2.4376e-014 -3.18055e-015
rhumerus -43.2425 -10.1687 -81.3874
rradius 45.1787
rwrist 36.0493
rhand -33.1899 -11.782
rfingers 7.12502
rthumb -6.39759 -41.6653
lclavicle 2.4376e-014 -3.18055e-015
lhumerus -37.7571 -6.85706 85.4868
lradius 31.2635
lwrist -29.7718
lhand -27.9786 14.6515
lfingers 7.12502
lthumb -1.36522 44.6269
rfemur 168.736 44.696 -166.314
rtibia 29.7726
rfoot -42.0361 -50.8231
rtoes 2.25819e-013
lfemur -9.31822 -5.90933 -10.0351
ltibia 26.2843
lfoot -24.6266 15.1892
ltoes -1.57437e-013
27
root 13.1715 18.1349 12.5148 -177.324 -9.36159 -176.977
lowerback 1.84274 0.275241 -2.51467
upperback 0.565102 0.31702 0.958135
thorax -0.472948 0.154652 2.38576
lowerneck -14.3731 0.427719 -5.74195
upperneck 23.2575 -2.49842 13.1575
head 9.96689 -0.652774 5.26142
rclavicle -7.62836e-015 -8.74653e-015
rhumerus -43.7809 -9.36088 -81.63
rradius 45.7322
rwrist 35.4391
rhand -33.343 -12.0411
rfingers 7.12502
rthumb -6.54535 -41.9199
lclavicle -7.62836e-015 -8.74653e-015
lhumerus -37.7395 -7.00672 85.1374
lradius 31.5291
lwrist -29.6697
lhand -27.9458 14.6377
lfingers 7.12502
lthumb -1.33357 44.6132
rfemur 168.947 44.0269 -166.321
rtibia 29.5883
rfoot -42.0386 -49.2348
rtoes -1.43125e-014
lfemur -9.12343 -5.6336 -10.0041
ltibia 25.8727
lfoot -24.2947 14.7459
ltoes 1.53064e-014
28
root 13.1939 18.1436 12.4864 -177.2 -9.68195 -176.928
lowerback 1.5522 0.219535 -2.24617
upperback 0.598701 0.254114 0.889154
thorax -0.270572 0.120422 2.16629
lowerneck -14.5501 0.462965 -5.74969
upperneck 23.3185 -2.46381 13.2341
head 10.0205 -0.621231 5.30099
rclavicle -1.20513e-014 -1.55052e-014
rhumerus -44.1773 -8.77783 -81.9358
rradius 46.296
rwrist 34.5364
rhand -33.1897 -11.9004
rfingers 7.12502
rthumb -6.39732 -41.7838
lclavicle -1.20513e-014 -1.55052e-014
lhumerus -37.721 -7.02803 84.6833
lradius 31.9202
lwrist -29.454
lhand -28.0175 14.7213
lfingers 7.12502
lthumb -1.40282 44.6964
rfemur 169.104 43.7124 -166.111
rtibia 29.4873
rfoot -41.9295 -48.139
rtoes 7.95139e-014
lfemur -9.1956 -5.33546 -9.80073
ltibia 25.5812
lfoot -23.7755 14.4156
ltoes -3.55825e-014
